<?xml version="1.0" standalone="no"?>
<!DOCTYPE svg PUBLIC "-//W3C//DTD SVG 20010904//EN"
 "http://www.w3.org/TR/2001/REC-SVG-20010904/DTD/svg10.dtd">
<svg version="1.0" xmlns="http://www.w3.org/2000/svg"
 width="465.000000pt" height="113.000000pt" viewBox="0 0 465.000000 113.000000"
 preserveAspectRatio="xMidYMid meet">

<g transform="translate(0.000000,113.000000) scale(0.100000,-0.100000)"
fill="#000000" stroke="none">
<path d="M0 565 l0 -565 2325 0 2325 0 0 565 0 565 -2325 0 -2325 0 0 -565z
m1420 10 l0 -175 -60 0 -60 0 0 175 0 175 60 0 60 0 0 -175z m330 35 l0 -140
25 0 c22 0 25 -4 25 -35 l0 -35 -47 0 c-41 0 -52 5 -85 37 l-38 37 0 138 0
138 60 0 60 0 0 -140z m220 -2 l0 -142 -32 -33 c-27 -28 -39 -33 -80 -33 l-48
0 0 35 c0 31 3 35 25 35 l25 0 0 140 0 140 55 0 55 0 0 -142z m206 -30 l59
-173 -53 -3 c-30 -2 -56 -1 -59 2 -7 6 -123 325 -123 337 0 5 26 9 58 9 l59 0
59 -172z m192 160 c-3 -7 -29 -82 -59 -165 -30 -84 -56 -153 -59 -153 -7 0
-50 130 -50 149 0 7 12 51 26 97 l26 84 60 0 c44 0 59 -3 56 -12z m212 -24 c0
-27 -5 -37 -20 -41 -18 -5 -20 -14 -20 -98 0 -84 2 -93 20 -98 15 -4 20 -14
20 -41 l0 -36 -95 0 -95 0 0 40 c0 29 4 40 15 40 12 0 15 17 15 95 0 78 -3 95
-15 95 -11 0 -15 11 -15 40 l0 40 95 0 95 0 0 -36z m170 -139 l0 -175 -60 0
-60 0 0 175 0 175 60 0 60 0 0 -175z m187 143 l33 -32 0 -110 0 -110 -32 -33
c-30 -31 -36 -33 -100 -33 l-68 0 0 35 c0 34 1 35 40 35 l40 0 0 105 0 105
-40 0 c-39 0 -40 1 -40 35 l0 35 67 0 c62 0 70 -2 100 -32z m203 -38 l0 -70
60 0 60 0 0 -35 0 -35 -60 0 -60 0 0 -70 0 -70 -60 0 -60 0 0 175 0 175 60 0
60 0 0 -70z m200 20 l0 -50 -55 0 c-42 0 -55 3 -55 15 0 10 -11 15 -35 15 -33
0 -35 2 -35 35 l0 35 90 0 90 0 0 -50z m-1740 -240 l0 -60 -80 0 -80 0 0 35
c0 31 3 35 25 35 18 0 25 5 25 18 0 28 9 32 62 32 l48 0 0 -60z m1740 -5 l0
-55 -90 0 -90 0 0 35 c0 33 2 35 35 35 28 0 35 4 35 20 0 18 7 20 55 20 l55 0
0 -55z"/>
</g>
</svg>
